<svg preserveAspectRatio="none" width="100%" height="100%" overflow="visible" style="display: block;" viewBox="0 0 15 16.6667" fill="none" xmlns="http://www.w3.org/2000/svg">
<path id="vector" fill-rule="evenodd" clip-rule="evenodd" d="M4.16667 0C4.6269 0 5 0.3731 5 0.833333V15.8333C5 16.2936 4.6269 16.6667 4.16667 16.6667C3.70643 16.6667 3.33333 16.2936 3.33333 15.8333V0.833333C3.33333 0.3731 3.70643 0 4.16667 0ZM14.1667 1.66667C14.6269 1.66667 15 2.03977 15 2.5V14.1667C15 14.6269 14.6269 15 14.1667 15C13.7064 15 13.3333 14.6269 13.3333 14.1667V2.5C13.3333 2.03977 13.7064 1.66667 14.1667 1.66667ZM7.5 2.5C7.96025 2.5 8.33333 2.8731 8.33333 3.33333V13.3333C8.33333 13.7936 7.96025 14.1667 7.5 14.1667C7.03975 14.1667 6.66667 13.7936 6.66667 13.3333V3.33333C6.66667 2.8731 7.03975 2.5 7.5 2.5ZM10.8333 4.16667C11.2936 4.16667 11.6667 4.53977 11.6667 5V11.6667C11.6667 12.1269 11.2936 12.5 10.8333 12.5C10.3731 12.5 10 12.1269 10 11.6667V5C10 4.53977 10.3731 4.16667 10.8333 4.16667ZM0.833333 5.83333C1.29357 5.83333 1.66667 6.20643 1.66667 6.66667V10C1.66667 10.4602 1.29357 10.8333 0.833333 10.8333C0.3731 10.8333 0 10.4602 0 10V6.66667C0 6.20643 0.3731 5.83333 0.833333 5.83333Z" fill="var(--fill-0, #79D1DB)"/>
</svg>
