<svg preserveAspectRatio="none" width="100%" height="100%" overflow="visible" style="display: block;" viewBox="0 0 19.6094 18.0469" fill="none" xmlns="http://www.w3.org/2000/svg">
<g id="vector">
<path d="M18.2422 7.20703C17.7031 7.20703 17.2656 7.64453 17.2656 8.18359V15.5078C17.2656 15.5937 17.2461 15.6797 17.2109 15.7539L14.2461 12.7891C14.0625 12.6055 13.8164 12.5039 13.5547 12.5039C13.293 12.5039 13.0469 12.6055 12.8633 12.7891L11.5625 14.0859L6.98047 9.50391C6.59766 9.12109 5.98047 9.12109 5.59766 9.50391L1.95312 13.1484V4.49219C1.95312 4.16797 2.21484 3.90625 2.53906 3.90625H10.7812C11.3203 3.90625 11.7578 3.46875 11.7578 2.92969C11.7578 2.39062 11.3203 1.95312 10.7812 1.95312H2.53906C1.14063 1.95312 0 3.09375 0 4.49219V15.5078C0 15.5234 0 15.5391 0 15.5547C0.0273437 16.9336 1.15234 18.0469 2.53906 18.0469H16.6797C18.0781 18.0469 19.2187 16.9062 19.2187 15.5078V8.18359C19.2187 7.64453 18.7812 7.20703 18.2422 7.20703Z" fill="var(--fill-0, #8373FF)"/>
<path d="M19.293 2.58203L17.8594 2.03516C17.7266 1.98437 17.625 1.88281 17.5742 1.75L17.0273 0.316406C16.8672 -0.105469 16.2695 -0.105469 16.1094 0.316406L15.5625 1.75C15.5117 1.88281 15.4102 1.98437 15.2773 2.03516L13.8437 2.58203C13.4219 2.74219 13.4219 3.33984 13.8437 3.5L15.2773 4.04687C15.4102 4.09766 15.5117 4.19922 15.5625 4.33203L16.1094 5.76563C16.2695 6.1875 16.8672 6.1875 17.0273 5.76563L17.5742 4.33203C17.625 4.19922 17.7266 4.09766 17.8594 4.04687L19.293 3.5C19.7148 3.33984 19.7148 2.74219 19.293 2.58203Z" fill="var(--fill-0, #8373FF)"/>
<path d="M11.0859 8.39844L11.9219 8.71875C12.0469 8.76563 12.1484 8.86719 12.1953 8.99219L12.5156 9.82813C12.6719 10.2344 13.25 10.2344 13.4024 9.82813L13.7227 8.99219C13.7695 8.86719 13.8711 8.76563 13.9961 8.71875L14.832 8.39844C15.2383 8.24219 15.2383 7.66406 14.832 7.51172L13.9961 7.19141C13.8711 7.14453 13.7695 7.04297 13.7227 6.91797L13.4024 6.08203C13.2461 5.67578 12.668 5.67578 12.5156 6.08203L12.1953 6.91797C12.1484 7.04297 12.0469 7.14453 11.9219 7.19141L11.0859 7.51172C10.6758 7.66797 10.6758 8.2461 11.0859 8.39844Z" fill="var(--fill-0, #8373FF)"/>
</g>
</svg>
