<svg preserveAspectRatio="none" width="100%" height="100%" overflow="visible" style="display: block;" viewBox="0 0 18.3597 20.0005" fill="none" xmlns="http://www.w3.org/2000/svg">
<path id="vector" d="M17.8367 4.99434C17.8367 4.99434 17.8367 4.99395 17.8367 4.99356C17.8359 4.99238 17.8355 4.99121 17.8347 4.99043C17.5007 4.41542 17.0195 3.92596 16.4265 3.58376L11.1135 0.516514C9.9209 -0.172171 8.43884 -0.172171 7.24624 0.516514L1.93363 3.58376C1.3555 3.91736 0.884002 4.3912 0.551183 4.94746C0.547276 4.95371 0.54337 4.95996 0.539464 4.9666C0.538292 4.96816 0.53751 4.97012 0.536729 4.97168C0.191801 5.55724 0 6.23303 0 6.93305V13.0675C0 14.4449 0.74103 15.7281 1.93363 16.4168L7.24624 19.4841C7.84273 19.8282 8.5111 20.0005 9.17987 20.0005C9.84863 20.0005 10.517 19.8282 11.1135 19.4841L16.4261 16.4168C17.6187 15.7281 18.3597 14.4449 18.3597 13.0675V6.93305C18.3597 6.24202 18.173 5.57482 17.8367 4.99473V4.99434ZM8.22282 2.20795C8.51814 2.03764 8.849 1.95248 9.17987 1.95248C9.51073 1.95248 9.8416 2.03764 10.1369 2.20795L15.421 5.25879L9.19198 8.84988L2.96529 5.24317L8.22282 2.20795ZM2.91021 14.725C2.31997 14.384 1.95316 13.7488 1.95316 13.0672V6.93266C1.95316 6.92641 1.95355 6.92016 1.95394 6.91391L8.20329 10.5339V17.7809L2.91021 14.725ZM15.4495 14.725L10.1564 17.7809V10.5484L16.4066 6.94516V13.0672C16.4066 13.7488 16.0398 14.384 15.4495 14.725Z" fill="var(--fill-0, #E7AD16)"/>
</svg>
