<svg preserveAspectRatio="none" width="100%" height="100%" overflow="visible" style="display: block;" viewBox="0 0 19.9911 17.7734" fill="none" xmlns="http://www.w3.org/2000/svg">
<g id="vector">
<path fill-rule="evenodd" clip-rule="evenodd" d="M6.9346 3.95848C6.93824 3.95929 7.8014 4.15225 7.80141 4.82529C7.80141 5.69019 6.93844 5.98877 6.9346 5.9901H2.6411C2.30385 5.9901 2.03162 6.26234 2.03162 6.59958V15.1324C2.03162 15.4696 2.30385 15.7419 2.6411 15.7419H12.0272C12.3645 15.7419 12.6366 15.4696 12.6366 15.1324V7.58325C13.0023 6.55895 14.3026 6.55895 14.6683 7.58325L18.6342 6.17719C18.947 6.06346 19.2921 6.11234 19.5602 6.30329C19.8325 6.49427 19.9911 6.8031 19.9911 7.13625V14.6245C19.9911 14.9536 19.8284 15.2623 19.5602 15.4532C19.3856 15.5751 19.1825 15.6403 18.9753 15.6403C18.8576 15.6403 18.7438 15.6242 18.6342 15.5836L14.6683 14.1733V15.1324C14.6683 16.587 13.4818 17.7734 12.0272 17.7734H2.6411C1.18646 17.7734 0 16.587 0 15.1324V6.59958C0 5.14495 1.18646 3.95848 2.6411 3.95848H6.9346ZM14.725 9.71978C14.7047 9.72385 14.6886 9.7327 14.6683 9.73669V12.0198C14.6885 12.0238 14.7048 12.0278 14.725 12.0359L17.9595 13.1862V8.57021L14.725 9.71978Z" fill="var(--fill-0, #10C98D)"/>
<path d="M11.3619 0.315655C11.5216 -0.105219 12.1179 -0.105217 12.2777 0.315655L12.8232 1.74588C12.8739 1.87838 12.9753 1.97972 13.1077 2.03039L14.538 2.57599C14.9588 2.73577 14.9588 3.33202 14.538 3.4918L13.1077 4.0374C12.9753 4.08806 12.8739 4.18937 12.8232 4.32187L12.2777 5.7521C12.1179 6.17298 11.5216 6.17298 11.3619 5.7521L10.8163 4.32187C10.7656 4.18937 10.6642 4.08806 10.5318 4.0374L9.10153 3.4918C8.6807 3.33202 8.68071 2.73578 9.10153 2.57599L10.5318 2.03039C10.6642 1.97972 10.7656 1.87838 10.8163 1.74588L11.3619 0.315655Z" fill="var(--fill-0, #10C98D)"/>
</g>
</svg>
