<svg preserveAspectRatio="none" width="100%" height="100%" overflow="visible" style="display: block;" viewBox="0 0 20 20" fill="none" xmlns="http://www.w3.org/2000/svg">
<path id="vector" d="M17.9286 0H14.8286C13.6857 0 12.7571 0.928571 12.7571 2.07143V2.1C11.9571 1.77142 11.1143 1.58571 10.2143 1.58571C8.78571 1.58571 7.61429 1.98571 6.71429 2.8C5.81429 3.61429 5.37143 4.65714 5.37143 5.95714C5.37143 6.81429 5.61429 7.58571 6.08571 8.24286C6.55714 8.9 7.35714 9.57142 8.47143 10.2571L9.15714 10.6714L9.64286 10.9714L10.2714 11.3571C11.7143 12.2571 12.4286 13.2 12.4286 14.2C12.4286 14.8142 12.1857 15.3286 11.7 15.7429C11.2143 16.1571 10.6 16.3571 9.85714 16.3571C8.92857 16.3571 8.05714 16.0857 7.25714 15.5714V14.8429C7.25714 13.7 6.32857 12.7714 5.18571 12.7714H2.07143C0.928571 12.7571 0 13.6857 0 14.8286V17.9286C0 19.0714 0.928571 20 2.07143 20H5.21429C6.32857 20 7.24286 19.1 7.24286 17.9714V17.9C8.07142 18.2286 8.94286 18.4 9.87142 18.4C11.2857 18.4 12.4286 17.9857 13.3142 17.1714C14.2 16.3429 14.6429 15.2714 14.6429 13.9571C14.6429 12.1143 13.6429 10.5857 11.6429 9.38571L10.4429 8.67142L10.4 8.64286L9.84286 8.31429C9.04286 7.84286 8.45714 7.38571 8.08571 6.95714C7.72857 6.52857 7.54286 6.07142 7.54286 5.57142C7.54286 5.01429 7.78571 4.55714 8.28571 4.2C8.78571 3.84286 9.41429 3.67143 10.1714 3.67143C11.0714 3.67143 11.9429 3.94286 12.7571 4.44286V5.12858C12.7571 6.27143 13.6857 7.2 14.8286 7.2H17.9714C19.0858 7.2 20 6.3 20 5.17142V2.07143C20 0.928571 19.0714 0 17.9286 0ZM5.3 17.9714C5.3 17.9714 5.25714 18.0571 5.21429 18.0571H2.07143C2 18.0571 1.94286 18 1.94286 17.9286V14.8286C1.94286 14.7571 2 14.7 2.07143 14.7H5.17142C5.24286 14.7 5.3 14.7571 5.3 14.8286V17.9714ZM18.0571 5.21429C18.0571 5.21429 18.0143 5.3 17.9714 5.3H14.8286C14.7571 5.3 14.7 5.24286 14.7 5.17142V2.07143C14.7 2 14.7571 1.94286 14.8286 1.94286H17.9286C18 1.94286 18.0571 2 18.0571 2.07143V5.21429Z" fill="var(--fill-0, #C081DE)"/>
</svg>
