<svg preserveAspectRatio="none" width="100%" height="100%" overflow="visible" style="display: block;" viewBox="0 0 19.9873 18.1836" fill="none" xmlns="http://www.w3.org/2000/svg">
<path id="vector" fill-rule="evenodd" clip-rule="evenodd" d="M19.0108 1.95312H11.1983C10.6589 1.95312 10.2217 2.39035 10.2217 2.92969V5.27082L7.46049 0.488281C7.28603 0.186133 6.96365 0 6.61478 0C6.26592 0 5.9435 0.186133 5.76908 0.488281L0.13084 10.2539C-0.0436133 10.5561 -0.0436133 10.9283 0.13084 11.2305C0.305293 11.5326 0.627676 11.7187 0.976582 11.7187H5.709C5.62021 12.1017 5.57326 12.5005 5.57326 12.9102C5.57326 15.8179 7.93892 18.1836 10.8467 18.1836C13.7545 18.1836 16.1201 15.8179 16.1201 12.9102C16.1201 12.5005 16.0732 12.1017 15.9844 11.7187H19.0108C19.5501 11.7187 19.9873 11.2815 19.9873 10.7422V2.92969C19.9873 2.39035 19.5501 1.95312 19.0108 1.95312ZM2.66804 9.76563L6.6148 2.92969L9.44226 7.82691C8.2975 8.14359 7.30781 8.83727 6.61601 9.76563H2.66804ZM10.8467 16.2305C9.01588 16.2305 7.52639 14.741 7.52639 12.9102C7.52639 11.0793 9.01588 9.58984 10.8467 9.58984C12.6775 9.58984 14.167 11.0793 14.167 12.9102C14.167 14.741 12.6775 16.2305 10.8467 16.2305ZM18.0342 9.76563H15.0774C14.3703 8.81668 13.3519 8.11273 12.1748 7.80621V3.90625H18.0342V9.76563Z" fill="var(--fill-0, #FAFAFA)"/>
</svg>
