<svg width="16" height="16" viewBox="0 0 16 16" fill="none" xmlns="http://www.w3.org/2000/svg">
<path d="M6.08 15.5C6.08 15.7761 5.85613 16 5.58 16H0.5C0.223872 16 0 15.7761 0 15.5V13.94C0 13.6639 0.223872 13.44 0.5 13.44H5.58C5.85613 13.44 6.08 13.6639 6.08 13.94V15.5ZM15.5 3.52005C15.7761 3.52005 16 3.29618 16 3.02005V0.500062C16 0.223935 15.7761 6.40867e-05 15.5 6.40867e-05L0.5 0C0.223872 0 0 0.223839 0 0.499998V11.66C0 11.9362 0.223872 12.16 0.5 12.16H5.58C5.85613 12.16 6.08 11.9362 6.08 11.66V10.1C6.08 9.8239 6.30387 9.60003 6.58 9.60003H15.5C15.7761 9.60003 16 9.37616 16 9.10003V6.58004C16 6.30391 15.7761 6.08004 15.5 6.08004H6.58C6.30387 6.08004 6.08 5.85617 6.08 5.58004V4.02005C6.08 3.74392 6.30387 3.52005 6.58 3.52005H15.5Z" fill="#E5E5E5"/>
</svg>
